Coordinates
version=1
nRows=6
nColumns=63
inDegrees=yes

Units are S.I. units (second, meters, Newtons, ...)
If the header above contains a line with 'inDegrees', this indicates whether rotational values are in degrees (yes) or radians (no).

endheader
time	pelvis_tilt	pelvis_list	pelvis_rotation	pelvis_tx	pelvis_ty	pelvis_tz	hip_flexion_r	hip_adduction_r	hip_rotation_r	knee_angle_r	knee_angle_r_beta	ankle_angle_r	subtalar_angle_r	mtp_angle_r	hip_flexion_l	hip_adduction_l	hip_rotation_l	knee_angle_l	knee_angle_l_beta	ankle_angle_l	subtalar_angle_l	mtp_angle_l	L5_S1_Flex_Ext	L5_S1_Lat_Bending	L5_S1_axial_rotation	L4_L5_Flex_Ext	L4_L5_Lat_Bending	L4_L5_axial_rotation	L3_L4_Flex_Ext	L3_L4_Lat_Bending	L3_L4_axial_rotation	L2_L3_Flex_Ext	L2_L3_Lat_Bending	L2_L3_axial_rotation	L1_L2_Flex_Ext	L1_L2_Lat_Bending	L1_L2_axial_rotation	L1_T12_Flex_Ext	L1_T12_Lat_Bending	L1_T12_axial_rotation	Abs_r3	Abs_r2	Abs_r1	Abs_t1	Abs_t2	neck_flexion	neck_bending	neck_rotation	arm_flex_r	arm_add_r	arm_rot_r	elbow_flex_r	pro_sup_r	wrist_flex_r	wrist_dev_r	arm_flex_l	arm_add_l	arm_rot_l	elbow_flex_l	pro_sup_l	wrist_flex_l	wrist_dev_l
      0.00000000	     -1.19613215	     -5.86404209	     93.30885306	      0.15413933	      0.90244945	      0.69422169	      4.21432296	     -1.90067999	    -15.72393029	     14.31527996	      0.24984877	     29.49723015	     18.35396585	      0.00000000	      5.97690286	      0.57233959	      4.52518532	     15.61025315	      0.27245031	     29.67257107	     -6.80279068	      0.00000000	     -0.06951808	      0.29646925	      0.87764295	     -0.12910203	      0.39430410	      0.93249563	     -0.11421125	      0.72083534	      0.93249563	     -0.07945221	      0.72083534	      0.76793758	     -0.06455449	      0.60456010	      0.71308490	     -0.03972263	      0.45923087	      0.65823221	     -0.49656070	      3.35371947	      4.88118678	      0.00000000	      0.00000000	     21.08353678	      0.74039690	      0.47642248	     14.34001315	     -8.31930069	     75.02059226	     35.15626841	     16.72205308	     -7.90757212	     -3.89214421	     23.18931395	     -3.91436737	     71.47367471	     35.44272188	     88.45690590	      5.34544280	      5.93607431
      0.01694915	     -1.49221025	     -6.38688033	     92.63753576	      0.15509156	      0.90032963	      0.69556333	      5.07327093	     -2.24276365	    -15.21656534	     14.62082939	      0.25518161	     30.65234049	     18.43203088	      0.00000000	      6.59106353	      1.19467513	      6.18576288	     16.08171300	      0.28067884	     28.19634418	     -9.69198111	      0.00000000	     -0.03585439	      0.28651448	      0.85841115	     -0.06658519	      0.38106426	      0.91206184	     -0.05890518	      0.69663131	      0.91206184	     -0.04097798	      0.69663131	      0.75110975	     -0.03329439	      0.58426033	      0.69745906	     -0.02048720	      0.44381093	      0.64380836	     -0.25610432	      3.24110910	      4.77422528	      0.00000000	      0.00000000	     21.83816171	      0.63492753	      2.39328552	     14.53942074	     -7.89089399	     73.41364868	     34.34996673	     42.12833251	     -9.03103784	      1.15413617	     22.79381591	     -4.90748228	     69.72373145	     37.71889672	     88.44038669	      6.80300979	      6.90996637
      0.03389831	     -1.68687320	     -6.77690330	     92.17369521	      0.15598452	      0.89871001	      0.69705262	      5.75647260	     -2.44391957	    -14.82183851	     14.85968793	      0.25935048	     31.47243262	     18.48608269	      0.00000000	      7.21495388	      1.43387908	      5.96224840	     16.59174603	      0.28958060	     27.85490822	     -9.93298212	      0.00000000	     -0.01480193	      0.27722953	      0.86074959	     -0.02748867	      0.36871528	      0.91454644	     -0.02431810	      0.67405588	      0.91454644	     -0.01691713	      0.67405588	      0.75315589	     -0.01374508	      0.56532646	      0.69935904	     -0.00845783	      0.42942854	      0.64556219	     -0.10572873	      3.13607590	      4.78723100	      0.00000000	      0.00000000	     22.38729830	      0.56406150	      3.59620037	     14.42395543	     -7.59901505	     70.19369149	     34.39272456	     58.17158311	     -7.18611796	      5.31474350	     23.07263266	     -5.48029450	     70.22710098	     39.04653792	     88.55645335	      6.66667149	      6.76126209
      0.05084746	     -1.87217932	     -7.02068832	     91.88891517	      0.15668389	      0.89767064	      0.69837888	      6.20206634	     -2.61448131	    -14.53275300	     14.99022231	      0.26162873	     32.01800934	     18.51192026	      0.00000000	      7.66361303	      1.62189599	      5.64426501	     16.89819542	      0.29492915	     27.80927136	    -10.07487927	      0.00000000	     -0.00323468	      0.25907146	      0.86827031	     -0.00600713	      0.34456504	      0.92253721	     -0.00531426	      0.62990634	      0.92253721	     -0.00369692	      0.62990634	      0.75973652	     -0.00300372	      0.52829852	      0.70546963	     -0.00184830	      0.40130169	      0.65120274	     -0.02310500	      2.93066815	      4.82905901	      0.00000000	      0.00000000	     22.67504175	      0.61106010	      4.16253036	     14.34381878	     -7.57387818	     70.70649629	     35.52384908	     37.95739651	     -7.63298755	      6.77751451	     23.85875786	     -5.74817533	     72.44671032	     39.58585261	     88.73651604	      5.15141544	      5.61538306
      0.06779661	     -1.96252471	     -7.15832976	     91.77787034	      0.15716987	      0.89702870	      0.69964712	      6.47337130	     -2.67984121	    -14.37559425	     15.04270319	      0.26254470	     32.32269303	     18.52792208	      0.00000000	      8.04441391	      1.58362675	      4.55373075	     17.17381553	      0.29973963	     28.35544797	     -8.99242120	      0.00000000	      0.00005363	      0.24589337	      0.88162805	      0.00009961	      0.32703818	      0.93672980	      0.00008812	      0.59786514	      0.93672980	      0.00006130	      0.59786514	      0.77142455	      0.00004981	      0.50142576	      0.71632279	      0.00003065	      0.38088883	      0.66122104	      0.00038311	      2.78159500	      4.90335074	      0.00000000	      0.00000000	     22.82490339	      0.64091683	      4.26215363	     14.11805225	     -7.67082972	     69.91364916	     37.18964046	     18.57330761	     -9.90885413	      7.43214016	     25.03414986	     -5.66101668	     76.01332184	     39.42975525	     88.89599257	      2.38963697	      3.64358161
      0.08474576	     -1.97300923	     -7.21259529	     91.84769351	      0.15712822	      0.89666819	      0.70058535	      6.55810633	     -2.67791432	    -14.38832553	     14.98453512	      0.26152947	     32.43802162	     18.54000150	      0.00000000	      8.27075650	      1.53896504	      4.02618120	     17.27301355	      0.30147096	     28.84724665	     -8.56271339	      0.00000000	      0.00044860	      0.24164204	      0.88838735	      0.00083310	      0.32138391	      0.94391156	      0.00073701	      0.58752845	      0.94391156	      0.00051271	      0.58752845	      0.77733893	      0.00041657	      0.49275644	      0.72181472	      0.00025633	      0.37430352	      0.66629051	      0.00320431	      2.73350307	      4.94094391	      0.00000000	      0.00000000	     22.84832511	      0.73449410	      4.18609682	     13.63615999	     -7.82579213	     66.83475189	     38.30956451	     14.41233278	    -11.61639022	      8.80389376	     26.30729862	     -5.18237161	     80.26560169	     38.71806428	     89.01693498	     -1.35003485	      1.47553391
